<svg xmlns="http://www.w3.org/2000/svg" width="100%" height="60px" xml:space="preserve" id="Laag_1" x="0" y="0" style="enable-background:new 0 0 300 81.13" version="1.1" viewBox="0 0 300 81.13"><style>.st0{fill-rule:evenodd;clip-rule:evenodd}.st0,.st1{fill:#1586aa}</style><path d="M27.32 0c22.25 1.05 44.83 13.96 40.01 40.6-1.86 10.3-6.01 16.71-6.99 20.78 9.05.28 17.42-8.68 20.94-14.61 3.28-5.53 4.21-6.05 2.33-13.88-1.12-4.66-2.65-8.92-4.96-13.19-3.88-7.18-11.14-13.3-19.27-16.53C49.08-.92 39.19.62 27.32 0" class="st0"/><path d="M99.93 75.26c-.56.2-1.2.52-2.51.52-2.83 0-4.12-1.72-4.12-4.31 0-2.36 1.48-4.03 3.73-4.03 2.65 0 3.51 1.94 3.51 4.5h-5.68c0 1.58 1.23 2.65 2.62 2.65.97 0 2.09-.5 2.45-.8v1.47zm-.95-4.41c0-1.22-.72-2.22-1.98-2.22-1.44 0-2.03 1.19-2.14 2.22h4.12zM101.85 70.8h4.01v1.19h-4.01V70.8zM112.76 68.97c-.56-.23-1.12-.34-1.59-.34-1.64 0-2.56 1.47-2.56 2.98 0 1.42.76 2.98 2.65 2.98.5 0 1.12-.16 1.58-.45l.11 1.31c-.61.28-1.31.33-1.84.33-2.4 0-4.06-1.89-4.06-4.17 0-2.42 1.62-4.17 4.06-4.17.59 0 1.36.14 1.78.31l-.13 1.22zM118.16 67.44c2.42 0 4.04 1.75 4.04 4.17 0 2.28-1.65 4.17-4.04 4.17-2.4 0-4.06-1.89-4.06-4.17.01-2.42 1.63-4.17 4.06-4.17zm0 7.15c1.72 0 2.48-1.56 2.48-2.98 0-1.51-.92-2.98-2.48-2.98-1.58 0-2.5 1.47-2.5 2.98.01 1.42.77 2.98 2.5 2.98zM124.16 67.63h1.37v1.16h.03c.56-.92 1.36-1.34 2.53-1.34.92 0 1.84.47 2.26 1.55.55-1.14 1.75-1.55 2.47-1.55 2.03 0 2.76 1.31 2.76 3.04v5.11h-1.47v-4.75c0-.98-.23-2.22-1.42-2.22-1.5 0-2.09 1.47-2.09 2.95v4.01h-1.47v-4.75c0-.98-.23-2.22-1.42-2.22-1.5 0-2.09 1.47-2.09 2.95v4.01h-1.47v-7.95zM138.04 67.63h1.37v1.16h.03c.56-.92 1.36-1.34 2.53-1.34.92 0 1.84.47 2.26 1.55.55-1.14 1.75-1.55 2.47-1.55 2.03 0 2.76 1.31 2.76 3.04v5.11H148v-4.75c0-.98-.23-2.22-1.42-2.22-1.5 0-2.09 1.47-2.09 2.95v4.01h-1.47v-4.75c0-.98-.23-2.22-1.42-2.22-1.5 0-2.09 1.47-2.09 2.95v4.01h-1.47v-7.95zM158.04 75.26c-.56.2-1.2.52-2.51.52-2.83 0-4.12-1.72-4.12-4.31 0-2.36 1.48-4.03 3.73-4.03 2.65 0 3.51 1.94 3.51 4.5h-5.68c0 1.58 1.23 2.65 2.62 2.65.97 0 2.09-.5 2.45-.8v1.47zm-.95-4.41c0-1.22-.72-2.22-1.98-2.22-1.44 0-2.03 1.19-2.14 2.22h4.12zM160.62 67.63h1.37v1.23h.03c.39-.83 1.23-1.42 2.08-1.42.44 0 .66.05.97.11v1.31c-.27-.11-.56-.14-.81-.14-1.31 0-2.17 1.25-2.17 3.25v3.62h-1.47v-7.96zM171.75 68.97c-.56-.23-1.12-.34-1.59-.34-1.64 0-2.56 1.47-2.56 2.98 0 1.42.77 2.98 2.65 2.98.5 0 1.12-.16 1.58-.45l.11 1.31c-.61.28-1.31.33-1.84.33-2.4 0-4.06-1.89-4.06-4.17 0-2.42 1.62-4.17 4.06-4.17.59 0 1.36.14 1.78.31l-.13 1.22zM179.73 75.26c-.56.2-1.2.52-2.51.52-2.83 0-4.12-1.72-4.12-4.31 0-2.36 1.48-4.03 3.73-4.03 2.65 0 3.51 1.94 3.51 4.5h-5.68c0 1.58 1.23 2.65 2.62 2.65.97 0 2.09-.5 2.45-.8v1.47zm-.95-4.41c0-1.22-.72-2.22-1.98-2.22-1.44 0-2.03 1.19-2.14 2.22h4.12zM186.63 67.63H188v1.16h.03c.56-.92 1.36-1.34 2.53-1.34.92 0 1.84.47 2.26 1.55.55-1.14 1.75-1.55 2.47-1.55 2.03 0 2.76 1.31 2.76 3.04v5.11h-1.47v-4.75c0-.98-.23-2.22-1.42-2.22-1.5 0-2.09 1.47-2.09 2.95v4.01h-1.47v-4.75c0-.98-.23-2.22-1.42-2.22-1.5 0-2.09 1.47-2.09 2.95v4.01h-1.47v-7.95zM200.9 68.19c.73-.44 1.61-.75 2.62-.75 2.28 0 3.2 1.12 3.2 3.29v3.29c0 .91.03 1.33.06 1.56h-1.37v-1.03h-.03c-.34.48-1.12 1.22-2.47 1.22-1.72 0-2.92-.75-2.92-2.48 0-2 2.19-2.62 3.7-2.62.58 0 .98 0 1.56.03 0-1.37-.5-2.08-1.97-2.08-.83 0-1.72.31-2.31.81l-.07-1.24zm4.36 3.61c-.31 0-.62-.03-.94-.03-.8 0-2.76.12-2.76 1.53 0 .84.81 1.3 1.48 1.3 1.45 0 2.22-.91 2.22-2.09v-.71zM214.85 74.47h-.03c-.39.59-1.3 1.31-2.72 1.31-2.4 0-3.42-2.14-3.42-4.31 0-2.14 1.12-4.03 3.43-4.03 1.39 0 2.19.55 2.64 1.28h.03v-4.84h1.47v11.71h-1.41v-1.12zm-2.41.12c1.65 0 2.34-1.64 2.34-2.97 0-1.48-.76-3-2.36-3-1.59 0-2.22 1.5-2.19 2.95-.02 1.26.64 3.02 2.21 3.02zM224.86 75.26c-.56.2-1.2.52-2.51.52-2.83 0-4.12-1.72-4.12-4.31 0-2.36 1.48-4.03 3.73-4.03 2.65 0 3.51 1.94 3.51 4.5h-5.68c0 1.58 1.23 2.65 2.62 2.65.97 0 2.09-.5 2.45-.8v1.47zm-.96-4.41c0-1.22-.72-2.22-1.98-2.22-1.44 0-2.03 1.19-2.14 2.22h4.12zM231.18 74.03c.58.37 1.4.56 1.83.56.67 0 1.5-.28 1.5-1.14 0-1.45-3.45-1.33-3.45-3.56 0-1.66 1.23-2.45 2.81-2.45.69 0 1.25.14 1.83.31l-.12 1.28c-.33-.2-1.2-.41-1.55-.41-.75 0-1.41.31-1.41.97 0 1.62 3.45 1.16 3.45 3.7 0 1.7-1.36 2.48-2.78 2.48-.75 0-1.51-.08-2.19-.44l.08-1.3zM239.6 65.85h-1.65v-1.66h1.65v1.66zm-1.57 1.78h1.47v7.96h-1.47v-7.96zM242.17 67.63h1.37v1.16h.03c.56-.92 1.36-1.34 2.53-1.34.92 0 1.84.47 2.26 1.55.55-1.14 1.75-1.55 2.47-1.55 2.03 0 2.76 1.31 2.76 3.04v5.11h-1.47v-4.75c0-.98-.23-2.22-1.42-2.22-1.5 0-2.09 1.47-2.09 2.95v4.01h-1.47v-4.75c0-.98-.23-2.22-1.42-2.22-1.5 0-2.09 1.47-2.09 2.95v4.01h-1.47v-7.95zM256.07 67.63h1.4v1.12h.03c.39-.59 1.3-1.31 2.7-1.31 2.31 0 3.43 1.89 3.43 4.03 0 2.19-1.01 4.31-3.42 4.31-1.4 0-2.2-.55-2.65-1.28h-.03v4.37h-1.47V67.63zm3.82 1c-1.59 0-2.36 1.51-2.36 3 0 1.33.69 2.97 2.34 2.97 1.58 0 2.23-1.76 2.2-3.01.04-1.45-.58-2.96-2.18-2.96zM265.8 63.88h1.47v11.71h-1.47V63.88zM276.05 75.26c-.56.2-1.2.52-2.51.52-2.83 0-4.12-1.72-4.12-4.31 0-2.36 1.48-4.03 3.73-4.03 2.65 0 3.51 1.94 3.51 4.5h-5.68c0 1.58 1.23 2.65 2.62 2.65.97 0 2.09-.5 2.45-.8v1.47zm-.95-4.41c0-1.22-.72-2.22-1.98-2.22-1.44 0-2.03 1.19-2.14 2.22h4.12zM281.1 72.53h-1.34l-.2-7.84h1.75l-.21 7.84zm-1.55 1.31h1.75v1.75h-1.75v-1.75zM93.02 18.25h4.69v13.69h15.66V18.25h4.69v32.72h-4.69v-14.9H97.71v14.91h-4.69V18.25zM149.23 23.64a13.137 13.137 0 0 0-6.75-1.83c-7.55 0-12.56 5.44-12.56 12.8 0 7.69 5.53 12.8 12.33 12.8 2.34 0 5.49-.61 7.13-1.59l.28 4.55c-2.48 1.03-5.53 1.17-7.45 1.17-10.36 0-17.25-6.66-17.25-17.06 0-10.08 7.31-16.78 17.3-16.78 2.53 0 5.02.37 7.36 1.41l-.39 4.53zM193.16 24.07c-2.3-1.5-4.78-2.25-9-2.25-7.55 0-12.56 5.49-12.56 12.8 0 7.69 5.53 12.8 12.33 12.8 3.23 0 4.08-.33 5.25-.56v-9.94h-6.89v-3.84h11.58V50.1c-1.78.61-4.88 1.45-9.99 1.45-10.36 0-17.25-6.66-17.25-17.06 0-10.08 7.31-16.78 17.3-16.78 4.78 0 6.89.7 9.61 1.64l-.38 4.72zM201.74 27.07h4.13v3.7h.09c1.17-2.48 3.7-4.27 6.24-4.27 1.31 0 1.97.14 2.91.33v3.94c-.8-.33-1.69-.42-2.44-.42-3.94 0-6.52 3.75-6.52 9.75v10.88h-4.41V27.07zM230.57 26.5c7.27 0 12.14 5.25 12.14 12.52 0 6.84-4.97 12.52-12.14 12.52-7.22 0-12.19-5.67-12.19-12.52 0-7.27 4.88-12.52 12.19-12.52zm0 21.48c5.16 0 7.45-4.69 7.45-8.95 0-4.55-2.77-8.95-7.45-8.95-4.74 0-7.5 4.41-7.5 8.95 0 4.26 2.3 8.95 7.5 8.95zM269.76 50.98h-4.27v-3.8h-.09c-1.31 2.72-4.5 4.36-7.83 4.36-6.19 0-8.95-3.84-8.95-10.27v-14.2h4.41v12.38c0 5.58 1.22 8.3 5.06 8.53 5.02 0 7.27-4.03 7.27-9.85V27.07h4.41v23.91zM277.26 27.07h4.22v3.38h.09c1.17-1.78 3.89-3.94 8.11-3.94 6.94 0 10.31 5.67 10.31 12.1 0 6.56-3.05 12.94-10.27 12.94-4.22 0-6.61-1.64-7.97-3.84h-.09v13.13h-4.41V27.07zm11.49 3c-4.78 0-7.08 4.55-7.08 9 0 3.99 2.06 8.91 7.03 8.91 4.74 0 6.7-5.3 6.61-9.05.1-4.32-1.78-8.86-6.56-8.86z" class="st1"/><path d="M15.65 73.43C4.36 54.22 2.84 28.25 27.79 17.73c9.64-4.07 17.28-4.1 21.23-5.5-4.71-7.73-16.78-9.85-23.68-9.56-6.43.27-7.37-.22-12.9 5.63-3.29 3.48-6.03 7.1-8.34 11.36C.21 26.83-.95 36.25.78 44.83c2.21 10.87 8.91 18.32 14.87 28.6" class="st0"/><path d="M84.87 48.83c-13.05 18.06-36.21 29.9-55.88 11.29-7.6-7.19-10.71-14.17-13.57-17.22-5.18 7.42-2.26 19.32.78 25.52 2.83 5.77 2.76 6.84 10.34 9.55 4.51 1.61 8.92 2.66 13.75 3.06 8.13.68 17.23-2.05 24.38-7.09 9.07-6.39 13.19-15.52 20.2-25.11" class="st0"/></svg>